<?xml version="1.0" standalone="no"?>
<!DOCTYPE svg PUBLIC "-//W3C//DTD SVG 20010904//EN"
 "http://www.w3.org/TR/2001/REC-SVG-20010904/DTD/svg10.dtd">
<svg version="1.0" xmlns="http://www.w3.org/2000/svg"
 width="2481.000000pt" height="3508.000000pt" viewBox="0 0 2481.000000 3508.000000"
 preserveAspectRatio="xMidYMid meet">

<g transform="translate(0.000000,3508.000000) scale(0.100000,-0.100000)"
fill="#fff" stroke="none">
<path d="M9239 26227 c-31 -17 -50 -36 -66 -68 -23 -46 -32 -172 -88 -1154
-229 -4066 -314 -8421 -210 -10810 53 -1200 143 -1963 259 -2193 65 -129 226
-207 370 -181 216 39 347 257 278 462 -114 337 -174 1076 -222 2747 -39 1345
-50 2615 -60 6984 -7 3015 -12 4089 -21 4115 -22 70 -91 121 -162 121 -19 0
-54 -10 -78 -23z"/>
<path d="M6496 24648 c-27 -25 -74 -160 -157 -455 -49 -177 -17 -155 -247
-172 -360 -28 -816 -121 -1184 -242 -82 -27 -161 -49 -175 -49 -16 0 -39 -14
-64 -39 -35 -35 -39 -44 -39 -88 0 -56 22 -93 71 -118 24 -13 46 -14 136 -5
232 21 605 32 863 26 255 -6 446 -19 457 -30 3 -3 -8 -77 -25 -163 -96 -486
-144 -901 -158 -1368 -8 -263 4 -519 51 -1090 19 -231 37 -458 40 -505 l6 -85
-48 -35 c-111 -80 -357 -294 -483 -420 -479 -479 -714 -980 -636 -1352 40
-186 182 -388 354 -501 122 -81 344 -177 408 -177 39 0 74 42 74 87 -1 46 -9
57 -83 107 -96 65 -218 201 -265 297 -75 156 -79 256 -12 386 51 98 125 189
290 354 132 132 463 417 467 402 3 -11 62 -787 138 -1813 88 -1189 154 -2018
240 -2985 78 -889 91 -1061 106 -1461 11 -322 3 -536 -26 -647 -19 -73 -19
-100 0 -137 29 -56 105 -76 167 -44 105 54 213 563 272 1284 41 489 55 835 63
1480 11 962 -31 1821 -172 3540 -34 406 -98 1119 -111 1226 l-6 50 194 139
c574 412 870 694 1100 1045 443 676 488 1634 105 2216 -289 439 -786 678
-1515 730 l-92 6 5 107 c3 58 10 184 15 280 8 144 7 178 -5 201 -24 46 -78 54
-119 18z m244 -1268 c566 -144 855 -376 932 -747 17 -86 19 -123 15 -308 -4
-161 -10 -232 -26 -303 -71 -318 -211 -568 -477 -852 -118 -125 -447 -410
-460 -397 -8 8 -73 605 -89 822 -22 298 -35 687 -42 1283 -6 519 -6 532 13
532 10 0 71 -13 134 -30z"/>
<path d="M16203 21905 c-62 -31 -91 -71 -143 -198 -92 -227 -182 -577 -224
-877 -49 -346 -51 -932 -6 -1470 5 -58 6 -108 2 -111 -4 -3 -54 -21 -112 -38
-373 -116 -734 -298 -1030 -519 -137 -103 -396 -358 -500 -492 -174 -225 -338
-516 -425 -754 -83 -227 -145 -510 -125 -571 16 -49 53 -75 106 -75 61 0 97
33 123 116 35 106 106 258 180 383 334 565 876 980 1522 1166 160 46 332 85
340 76 4 -3 23 -134 42 -291 20 -157 83 -661 141 -1120 116 -922 159 -1287
241 -2045 30 -280 68 -625 85 -765 62 -533 73 -689 74 -990 1 -295 -7 -377
-49 -476 -8 -20 -15 -46 -15 -58 0 -36 36 -83 73 -95 90 -30 163 60 248 309
96 277 159 684 190 1210 13 228 7 875 -10 1125 -37 516 -88 1078 -152 1650
-37 332 -182 1520 -194 1591 l-5 32 102 6 c121 8 461 -8 627 -30 700 -91 1269
-379 1767 -896 304 -315 538 -716 604 -1032 28 -135 176 -188 269 -96 47 47
56 88 41 193 -57 415 -301 918 -654 1345 -115 139 -371 392 -511 504 -481 383
-987 620 -1545 722 -205 37 -345 48 -572 44 l-206 -3 -6 60 c-25 249 -31 459
-30 980 1 578 13 902 41 1120 25 191 23 233 -12 290 -61 98 -186 132 -292 80z"/>
<path d="M17958 16860 c-162 -28 -274 -85 -389 -200 -74 -74 -94 -101 -138
-191 -90 -183 -128 -360 -138 -630 -14 -399 76 -671 296 -889 172 -171 354
-237 620 -227 209 8 357 57 490 162 31 25 59 41 62 37 3 -4 23 -70 44 -147
155 -579 372 -1011 644 -1285 163 -165 311 -258 478 -301 89 -22 133 -19 203
16 84 43 129 119 130 218 0 134 -74 219 -224 254 -227 53 -427 263 -616 648
-205 416 -334 911 -415 1590 -14 118 -30 227 -35 241 -40 103 -143 194 -223
194 -58 0 -114 -36 -143 -91 -21 -41 -51 -167 -58 -244 -15 -152 -69 -360
-123 -471 -14 -28 -52 -81 -84 -117 -71 -79 -136 -109 -239 -110 -123 -1 -208
64 -281 217 -94 196 -117 552 -45 711 87 192 300 238 547 118 105 -50 183 -55
259 -16 139 71 179 244 86 366 -18 23 -50 52 -71 64 -121 68 -463 112 -637 83z"/>
<path d="M14990 16584 c-120 -26 -402 -128 -460 -166 -111 -74 -232 -212 -295
-338 -121 -243 -152 -578 -84 -927 89 -464 366 -757 772 -819 386 -60 763 95
1022 419 73 91 82 127 42 165 -33 31 -67 27 -160 -17 -110 -52 -283 -107 -387
-122 -54 -7 -129 -10 -210 -6 -225 12 -333 48 -430 146 l-55 55 110 18 c202
34 355 87 506 177 338 200 489 489 445 847 -8 66 -24 143 -35 172 -77 194
-254 350 -451 396 -80 19 -242 19 -330 0z m257 -467 c18 -10 45 -34 60 -54 27
-35 28 -42 28 -142 0 -97 -2 -111 -28 -160 -54 -101 -177 -200 -352 -282 -128
-60 -306 -130 -316 -123 -5 3 -9 69 -9 147 0 248 40 362 167 484 78 76 140
112 233 138 67 18 173 14 217 -8z"/>
<path d="M12175 16451 c-22 -10 -55 -34 -72 -54 -50 -57 -57 -98 -39 -240 9
-67 54 -466 101 -887 47 -421 92 -788 100 -816 58 -195 324 -250 458 -94 43
50 63 108 72 205 39 427 169 872 304 1043 66 83 112 82 161 -2 121 -213 214
-608 225 -958 l4 -137 -35 -11 c-66 -22 -83 -98 -34 -153 43 -49 106 -64 163
-39 111 49 199 227 256 517 48 245 53 551 12 740 -72 338 -266 586 -507 650
-76 20 -231 20 -309 0 -162 -42 -326 -166 -433 -328 l-26 -39 -42 169 c-70
281 -91 342 -138 389 -62 63 -145 80 -221 45z"/>
<path d="M10580 16305 c-286 -64 -469 -243 -568 -555 -48 -150 -66 -274 -66
-455 -1 -178 14 -269 65 -408 126 -346 466 -576 850 -577 148 0 319 39 438 99
24 13 47 19 50 14 4 -4 27 -62 50 -128 148 -414 404 -776 675 -959 65 -44 126
-32 152 31 19 43 13 61 -43 137 -53 72 -120 201 -157 306 -93 258 -176 715
-225 1236 -11 111 -26 217 -34 236 -53 127 -209 202 -340 164 -113 -33 -185
-116 -211 -244 -20 -94 -50 -154 -103 -203 -58 -54 -123 -80 -209 -86 -169
-12 -295 81 -340 252 -30 110 -9 343 39 448 43 94 109 127 254 127 124 0 400
-60 528 -115 57 -25 142 -17 192 18 56 39 86 97 86 166 0 93 -33 136 -185 244
-168 118 -332 201 -485 243 -82 23 -327 28 -413 9z"/>
</g>
</svg>
